# xmcd
#
# Track frame offsets:
#	150
#	11329
#	26260
#	44129
#	54604
#	78485
#	89267
#	104734
#	121032
#	133373
#
# Disc length: 1941 seconds
# Revision: 0
# Processed by: cddbd v1.5.2PL0 Copyright (c) Steve Scherf et al.
# Submitted via: dBpowerAMP V12.0
#
DISCID=8207930a
DTITLE=Ward Family Bluegrass - Ready To Go
DYEAR=1900
DGENRE=Bluegrass
TTITLE0=Lead On, O King Eternal
TTITLE1=Master And Commander
TTITLE2=Guilty Hands
TTITLE3=I'm Ready To Go
TTITLE4=I Have Not Forgotten
TTITLE5=God Is Watching Over Me
TTITLE6=In The Palm Of Your Hand
TTITLE7=Soldier's Prayer
TTITLE8=Brothers And Sisters
TTITLE9=Orange Blossom Special
EXTD=
EXTT0=
EXTT1=
EXTT2=
EXTT3=
EXTT4=
EXTT5=
EXTT6=
EXTT7=
EXTT8=
EXTT9=
PLAYORDER=
